<svg width="36" height="24" viewBox="0 0 36 24" fill="none" xmlns="http://www.w3.org/2000/svg">
<path d="M7.33333 10.6667C8.06971 10.6667 8.66667 11.2636 8.66667 12C8.66667 12.7364 8.06971 13.3333 7.33333 13.3333C6.59695 13.3333 6 12.7364 6 12C6 11.2636 6.59695 10.6667 7.33333 10.6667Z" fill="white"/>
<path d="M28.7467 13.3333H12.5867C11.8945 13.3333 11.3333 12.7722 11.3333 12.08V11.92C11.3333 11.2278 11.8945 10.6667 12.5867 10.6667H28.7467C29.4389 10.6667 30 11.2278 30 11.92V12.08C30 12.7722 29.4389 13.3333 28.7467 13.3333Z" fill="white"/>
<path d="M28.7467 6.66667H7.25333C6.56114 6.66667 6 6.10553 6 5.41333V5.25333C6 4.56114 6.56114 4 7.25333 4H28.7467C29.4389 4 30 4.56114 30 5.25333V5.41333C30 6.10553 29.4389 6.66667 28.7467 6.66667Z" fill="white"/>
<path d="M28.7467 20H7.25333C6.56114 20 6 19.4389 6 18.7467V18.5867C6 17.8945 6.56114 17.3333 7.25333 17.3333H28.7467C29.4389 17.3333 30 17.8945 30 18.5867V18.7467C30 19.4389 29.4389 20 28.7467 20Z" fill="white"/>
</svg>
